<?xml version="1.0" encoding="UTF-8"?>
<svg xmlns="http://www.w3.org/2000/svg" version="1.1" viewBox="0 0 1186.44 1021.57">
  <!-- Generator: Adobe Illustrator 29.6.1, SVG Export Plug-In . SVG Version: 2.1.1 Build 9)  -->
  <defs>
    <style>
      .st0 {
        isolation: isolate;
      }

      .st1, .st2 {
        fill: #fff;
      }

      .st2 {
        mix-blend-mode: multiply;
        opacity: .5;
      }
    </style>
  </defs>
  <g class="st0">
    <g id="SVG">
      <g>
        <g>
          <path class="st1" d="M663.36,292.18c-12.42-20.05-41.92-19.75-53.79.85l-44.4,76.93-12.36,21.32-220.8,382.43-53.67,92.99c-5.57,9.57-13.45,17.33-22.72,22.72-9.27,5.33-19.93,8.3-31.02,8.3-22.17,0-42.65-11.75-53.73-31.02-11.03-19.14-11.03-42.77,0-61.97L511.43,214.94c11.09-19.2,31.56-31.02,53.73-31.02s42.65,11.81,53.61,31.02l44.59,77.24Z"/>
          <g>
            <path class="st1" d="M700.07,355.79l-71.54,123.94-63.36-109.77,44.4-76.93c11.87-20.6,41.37-20.9,53.79-.85l36.71,63.61Z"/>
            <path class="st1" d="M959.34,866.7c-11.09,19.26-31.5,31.02-53.67,31.02h-308.76c-29.44,0-47.92-31.86-33.32-57.43.06-.06.06-.12.12-.18l38.35-66.39h196.27l-98.14-169.98,71.54-123.94,187.61,324.94c11.09,19.2,11.09,42.83,0,61.97Z"/>
          </g>
          <g>
            <path class="st1" d="M862.36,322.83l-90.62,156.96-71.54,123.94-98.14,169.98-38.35,66.39c-.06.06-.06.12-.12.18-14.6,25.56,3.88,57.43,33.32,57.43h-142.42c-11.33,0-21.02-4.66-27.93-11.87-.85-.91-1.7-1.82-2.48-2.79-3.03-3.94-5.39-8.36-6.85-13.15-.24-.91-.48-1.82-.67-2.73-.18-.67-.3-1.39-.42-2.06-.06-.24-.06-.42-.12-.67-.06-.3-.06-.54-.06-.85-.12-.61-.18-1.15-.24-1.76-.54-7.45.97-15.2,5.15-22.41l37.92-65.73,169.74-293.98,71.54-123.94,54.82-94.99c23.56-40.77,82.2-41.5,106.74-1.27,11.81,19.38,12.05,43.68.73,63.3Z"/>
            <circle class="st1" cx="897.19" cy="150.38" r="62.25" transform="translate(156.44 678.45) rotate(-45)"/>
          </g>
          <polygon class="st2" points="700.19 603.73 721.78 641.12 734.42 619.22 793.32 517.18 771.74 479.79 700.19 603.73"/>
        </g>
        <path class="st2" d="M594.53,862.26c3.61-6.98,25.73-45.54,50.53-88.55h-43l-38.35,66.39c-.06.06-.06.12-.12.18-14.6,25.56,3.88,57.43,33.32,57.43-7.59-4.41-11.17-18.45-2.38-35.45Z"/>
      </g>
    </g>
  </g>
</svg>